# xmcd
#
# Track frame offsets: 
#        150
#        86456
#        158337
#        241639
#        292667
#
# Disc length: 4768 seconds
#
# Revision: 0
# Processed by: cddbd v1.5.2PL0 Copyright (c) Steve Scherf et al.
# Submitted via: ExactAudioCopy v1.3
#
DISCID=26129e05
DTITLE=Diverse - The Gate of Glory - Music from The Eton Choirbook Vol
DTITLE=5
DYEAR=2017
DGENRE=Chorus
TTITLE0=Gaude flore virginali a7 (Hugo Kellyk)
TTITLE1=O regina mundi clara a6 (John Browne)
TTITLE2=Magnificat 'Regali' a5 (Robert Fayrfax)
TTITLE3=Gaude flore virginali a4 (Walter Lambe)
TTITLE4=Salve regina a5 (Robert Hacomplaynt)
EXTD=
EXTT0=
EXTT1=
EXTT2=
EXTT3=
EXTT4=
PLAYORDER=
